<?xml version="1.0" encoding="utf-8"?>
<!-- Generator: Adobe Illustrator 19.0.0, SVG Export Plug-In . SVG Version: 6.00 Build 0)  -->
<svg version="1.1" id="Warstwa_1" xmlns="http://www.w3.org/2000/svg" xmlns:xlink="http://www.w3.org/1999/xlink" x="0px" y="0px"
	 viewBox="0 0 35 35" style="enable-background:new 0 0 35 35;" xml:space="preserve">
<style type="text/css">
	.st0{fill:#3A6D55;}
	.st1{fill:#FFFFFF;}
</style>
<g id="XMLID_110_">
	<circle id="XMLID_8_" class="st0" cx="17.4" cy="18.2" r="15.9"/>
	<path id="XMLID_126_" class="st1" d="M22.6,9.3H12.2c-2.1,0-3.7,1.7-3.7,3.7v10.4c0,2.1,1.7,3.7,3.7,3.7h10.4
		c2.1,0,3.7-1.7,3.7-3.7V13C26.4,10.9,24.7,9.3,22.6,9.3z M14.5,23.4h-2.2v-8.2h2.2V23.4z M13.4,14.3c-0.7,0-1.3-0.6-1.3-1.3
		c0-0.7,0.6-1.3,1.3-1.3s1.3,0.6,1.3,1.3C14.7,13.7,14.1,14.3,13.4,14.3z M23.4,23.4h-2.2v-4.2c0-2.5-3-2.3-3,0v4.2H16v-8.2h2.2v1.3
		c1-1.9,5.2-2.1,5.2,1.8V23.4z"/>
</g>
</svg>
