<?xml version="1.0" encoding="utf-8"?>
<!-- Generator: Adobe Illustrator 19.0.0, SVG Export Plug-In . SVG Version: 6.00 Build 0)  -->
<svg version="1.1" id="Warstwa_1" xmlns="http://www.w3.org/2000/svg" xmlns:xlink="http://www.w3.org/1999/xlink" x="0px" y="0px"
	 viewBox="0 0 768 1024" style="enable-background:new 0 0 768 1024;" xml:space="preserve">
<style type="text/css">
	.st0{fill:#1B2E35;}
	.st1{fill:#263C42;}
	.st2{fill:#2C141B;}
	.st3{fill:#E8D9CA;}
	.st4{fill:#CEC2B7;}
	.st5{fill:#3C110D;}
	.st6{fill:#FFB319;}
	.st7{fill:#F5A58E;}
	.st8{fill:#006633;}
	.st9{fill:#E5907C;}
	.st10{fill:#E5907C;stroke:#E5907C;stroke-miterlimit:10;}
	.st11{fill:#DD5865;}
	.st12{fill:none;stroke:#BCB0A6;stroke-miterlimit:10;}
	.st13{fill:#0E1A1E;}
	.st14{fill:none;stroke:#263C42;stroke-width:3;stroke-miterlimit:10;}
	.st15{fill:none;}
	.st16{fill:none;stroke:#E5907C;stroke-width:2;stroke-miterlimit:10;}
</style>
<g id="XMLID_49_">
	<path id="XMLID_54_" class="st0" d="M581.4,974.8l-417.6,15.9c0.8-21.3,1.7-42.5,2.5-63.8c2.2-57.4,4.6-115.3,19.4-170.8
		c0.5-1.8,1-3.6,1.5-5.4c0.9-3.1,1.8-6.2,2.8-9.3c0.7-2.1,1.4-4.3,2.1-6.4c0.5-1.6,1.1-3.2,1.6-4.7c1.5-4.3,3.2-8.7,4.9-12.9
		c0.5-1.2,0.9-2.4,1.5-3.6c0.5-1.3,1.1-2.7,1.7-4c1.1-2.5,2.2-5,3.3-7.5c0.6-1.4,1.2-2.7,1.9-4c1.7-3.6,3.5-7.1,5.4-10.6
		c0.6-1.2,1.3-2.4,2-3.6l2-3.6c0.7-1.2,1.4-2.3,2.1-3.5c1.4-2.3,2.8-4.7,4.3-6.9c2.9-4.6,5.9-9,9.2-13.4c0.8-1.1,1.6-2.2,2.4-3.2
		c1.6-2.1,3.2-4.2,4.9-6.2c0.1-0.1,0.1-0.2,0.2-0.3c0.9-1,1.5-2,2.3-3c0.9-1,2.4-2,2.4-3.1v0c10-10.5,19.7-20.1,30.9-28.5
		l165.6,52.7c53.8,99.1,105.6,200.1,140.3,307.4C581.1,973.4,581.3,974.1,581.4,974.8z"/>
</g>
<g id="XMLID_4_">
	<path id="XMLID_32_" class="st1" d="M334.9,673.8c-0.4,4.6-1,9.2-1.7,13.8c-0.7,4.6-1.4,9.1-2.2,13.7c-0.4,2.3-0.9,4.5-1.4,6.8
		c-0.5,2.3-1,4.5-1.6,6.8c-0.6,2.3-1.1,4.5-1.6,6.8c-0.5,2.3-1,4.5-1.4,6.8c-0.9,4.5-1.6,9.1-2.2,13.7l-1,6.9
		c-0.3,2.3-0.7,4.6-1.1,6.9l-2.3,13.7l-1.3,6.8l-1.4,6.8l-1.2-1.8c4.6,0.9,9.3,1.8,13.9,2.8c2.3,0.5,4.6,1,6.9,1.5
		c2.3,0.6,4.6,1.1,6.9,1.7l-0.1,0.3c-2.4-0.2-4.7-0.4-7.1-0.7c-2.3-0.3-4.7-0.5-7-0.8c-4.7-0.6-9.4-1.2-14-1.9l-1.5-0.2l0.3-1.5
		l1.2-6.8l1.3-6.8l2.8-13.6c0.5-2.3,1-4.5,1.5-6.8l1.6-6.8c1.1-4.5,2-9,2.9-13.6c0.4-2.3,0.8-4.6,1.1-6.9c0.3-2.3,0.6-4.6,0.9-6.9
		c0.3-2.3,0.6-4.6,1-6.9c0.3-2.3,0.8-4.6,1.2-6.8c0.9-4.5,1.8-9.1,2.8-13.6c1-4.5,2.1-9,3.4-13.5L334.9,673.8z"/>
</g>
<path id="XMLID_58_" class="st2" d="M562.7,468.1c0,91.7-50.2,166-112.2,166c-21.2,0-41.1-8.7-58-23.9
	c-16.5-14.8-37.8-19.4-57.1-11.4c-9.7,4-19.8,6.1-30.3,6.1c-62,0-112.2-74.3-112.2-165.9c0-65.1,25.4-121.5,62.3-148.7
	c15.1-11.1,26-29.4,29.8-50.7c12.8-70.7,45.9-101.7,97.8-101.7c62,0,122.8,53.2,122.8,144.8c0,1.1,0,2.3,0,3.4
	c-0.3,20.8,6.1,41,17.8,55.8C547.4,372.4,562.7,417.6,562.7,468.1z"/>
<g id="XMLID_15_">
	<path id="XMLID_33_" class="st3" d="M458.5,498.5c-8,38.7-23.5,76.9-34.8,101.6c-7.2,15.8-12.8,26.2-13.7,27.8l-160.4-29.7
		c0.1-0.1,0.2-0.2,0.2-0.2c-44.2-133.1,54.7-228.4,54.7-228.4l14.6,8.4c-46.7,105.2,34.9,94.4,34.9,94.4l3.8,28l16.2-19.5
		c64.9,18.6,83.5-70.1,83.5-70.1C466.6,435.9,465,467.4,458.5,498.5z"/>
	<path id="XMLID_21_" class="st4" d="M458.5,498.5c-8,38.7-23.5,76.9-34.8,101.6l-10.4-24l41.1-124.3L458.5,498.5z"/>
</g>
<g id="XMLID_84_">
	<path id="XMLID_51_" class="st5" d="M232,655.7c64.1-0.7,128.3,2.8,192,10.3c7.2,0.9,16.5,0.7,19.5-5.8c1.2-2.6,1-5.7,0.1-8.5
		c-3.9-12.5-18.5-18-31.4-21c-42.3-10-86.4-12.4-129.5-7c-11.1,1.4-22.3,3.3-32.1,8.8"/>
</g>
<path id="XMLID_269_" class="st6" d="M322.6,616.7c-1.1,0-2.2,0.1-3.3,0.3c-0.9,0.2-1.8,0.4-2.6,0.7c-1,0.4-2.1,0.8-3.1,1.4
	c-1,0.5-1.9,1.2-2.8,1.9c-1.6,1.2-2.9,2.8-4,4.5c-0.6,1-1.1,2-1.5,3.1c-0.4,0.9-0.6,1.8-0.8,2.8c-0.2,1.2-0.4,2.3-0.4,3.5
	c0,1.2,0.1,2.4,0.3,3.5c0.3,2.1,1,4.2,2.1,6c0.6,1.1,1.3,2,2.1,3c0.6,0.8,1.3,1.5,2.1,2.2c0.9,0.8,1.8,1.6,2.8,2.3
	c0.9,0.6,1.7,1.2,2.7,1.7c1.1,0.6,2.3,1.1,3.4,1.6c1,0.4,2,0.7,3,0.9c2,0.4,4,0.6,6,0.4c2-0.2,4-0.6,5.9-1.3
	c1.9-0.7,3.8-1.6,5.4-2.7c3.5-2.3,6.4-5.4,8.4-9.1c0.6-1,1-2.1,1.5-3.2c0.4-0.9,0.7-1.8,0.9-2.8c0.5-2.1,0.8-4.3,0.7-6.4
	c-0.1-2.1-0.4-4.2-1.2-6.1c-0.4-1-0.8-2-1.3-2.9c-0.5-0.9-1.2-1.8-1.8-2.6c-1.2-1.5-2.7-2.8-4.2-3.9c-0.7-0.5-1.5-0.9-2.2-1.3
	c-1-0.4-2-0.8-3-1.1c-1-0.3-2.1-0.4-3.1-0.5c-0.4,0-0.7,0.1-1,0.2c-0.3,0.1-0.6,0.3-0.8,0.5c-0.4,0.4-0.8,1.2-0.8,1.8
	c0,0.7,0.2,1.4,0.8,1.8c0.2,0.1,0.3,0.3,0.5,0.4c0.4,0.2,0.8,0.4,1.3,0.4c0.3,0,0.6,0,0.9,0.1c-0.2,0-0.5-0.1-0.7-0.1
	c1.2,0.2,2.4,0.5,3.5,1c-0.2-0.1-0.4-0.2-0.6-0.3c1.2,0.5,2.4,1.2,3.5,2c-0.2-0.1-0.3-0.3-0.5-0.4c1.1,0.9,2.1,1.9,3,3
	c-0.1-0.2-0.3-0.3-0.4-0.5c0.9,1.2,1.6,2.4,2.2,3.8c-0.1-0.2-0.2-0.4-0.3-0.6c0.6,1.4,1,2.8,1.2,4.3c0-0.2-0.1-0.5-0.1-0.7
	c0.2,1.7,0.2,3.4,0,5.1c0-0.2,0.1-0.5,0.1-0.7c-0.3,1.9-0.8,3.8-1.6,5.7c0.1-0.2,0.2-0.4,0.3-0.6c-0.8,1.8-1.8,3.6-3,5.1
	c0.1-0.2,0.3-0.3,0.4-0.5c-1.2,1.5-2.6,2.9-4.1,4.1c0.2-0.1,0.3-0.3,0.5-0.4c-1.6,1.2-3.3,2.2-5.2,3c0.2-0.1,0.4-0.2,0.6-0.3
	c-1.7,0.7-3.5,1.2-5.4,1.5c0.2,0,0.5-0.1,0.7-0.1c-1.6,0.2-3.3,0.2-4.9,0c0.2,0,0.5,0.1,0.7,0.1c-1.6-0.2-3.2-0.7-4.8-1.3
	c0.2,0.1,0.4,0.2,0.6,0.3c-2-0.8-3.9-2-5.6-3.3c0.2,0.1,0.3,0.3,0.5,0.4c-1.5-1.1-2.8-2.4-3.9-3.9c0.1,0.2,0.3,0.3,0.4,0.5
	c-0.9-1.1-1.6-2.3-2.1-3.6c0.1,0.2,0.2,0.4,0.3,0.6c-0.5-1.3-0.9-2.7-1.1-4.1c0,0.2,0.1,0.5,0.1,0.7c-0.2-1.5-0.2-3,0-4.5
	c0,0.2-0.1,0.5-0.1,0.7c0.2-1.4,0.6-2.8,1.1-4.1c-0.1,0.2-0.2,0.4-0.3,0.6c0.5-1.2,1.2-2.3,2-3.4c-0.1,0.2-0.3,0.3-0.4,0.5
	c0.8-1.1,1.8-2,2.9-2.9c-0.2,0.1-0.3,0.3-0.5,0.4c1.1-0.9,2.4-1.6,3.7-2.2c-0.2,0.1-0.4,0.2-0.6,0.3c1.3-0.6,2.7-0.9,4.1-1.1
	c-0.2,0-0.5,0.1-0.7,0.1c0.7-0.1,1.4-0.1,2.1-0.1c0.7,0,1.4-0.3,1.8-0.8c0.4-0.4,0.8-1.2,0.8-1.8c0-0.7-0.2-1.4-0.8-1.8
	C323.9,617,323.3,616.7,322.6,616.7L322.6,616.7z"/>
<path id="XMLID_52_" class="st7" d="M364.6,476.6c0,0-109.4-24.4-45.5-98.7c0,0,11.6,3.9,24.2,0.6c14.1-3.7,29.4-16.5,30.3-54.4
	c0.1-2.8,0.1-5.7,0-8.7l24.8-7.1l30.1-8.6c0.1,2.1-4.2,21.3-4.9,43.5c-0.9,28,3.9,60.8,30.7,70.2
	C502.1,430.1,415.6,512.1,364.6,476.6z"/>
<path id="XMLID_18_" class="st3" d="M314.5,375.7l-38.2,48.7c-33.1,34.9-55.5,118.1-61.8,144.1l-58.2,5.1
	c2.8-31.4,14.6-63.1,15.8-66.3c0.1-0.2,0.1-0.4,0.2-0.6C233,305.7,314.5,375.7,314.5,375.7z"/>
<g id="XMLID_13_">
	<path id="XMLID_31_" d="M451.4,697.5l-20.5-263.4c-0.1-1.4-1.4-2.5-2.8-2.4l-189,14.7c-1.4,0.1-2.5,1.4-2.4,2.8l20.5,263.4
		c0.1,1.4,1.4,2.5,2.8,2.4l189-14.7C450.4,700.1,451.5,698.9,451.4,697.5z"/>
	<g id="g3017" transform="matrix(1.25,0,0,-1.25,-67.822513,702.43127)" inkscape:groupmode="layer" inkscape:label="c02716792">
		<g id="g3061" transform="matrix(1.5180439,0,0,1.5180439,-28.149474,-249.71011)">
			<g id="g3021" transform="translate(106.93201,508.32201)">
				<path id="path3023" inkscape:connector-curvature="0" class="st8" d="M142.1-275.8c0,5.8-4.7,10.5-10.5,10.5c-0.2,0-0.3,0-0.5,0
					l-2.2-5.9h1.9c1.1,0,1.7-0.9,1.3-1.9l-2.7-7.3l-2.2,0l2.9,7.8h-1.7l-2.9-7.8h-2.2l3.4,9.2h0l2,5.6c-4.4-1.2-7.7-5.3-7.7-10.2
					c0-5,3.5-9.2,8.1-10.3l2,5.4h0l3.5,9.5h4.1c1.1,0,1.7-0.9,1.3-1.9l-2.3-6.4c-0.2-0.5-0.7-0.9-1.3-0.9h-3l-2.2-5.9
					c0.1,0,0.2,0,0.3,0C137.3-286.3,142.1-281.6,142.1-275.8"/>
			</g>
			<g id="g3025" transform="translate(96.546997,516.36501)">
				<path id="path3027" inkscape:connector-curvature="0" class="st8" d="M148.3-280.6h-1.7l-2.4-6.5h1.7L148.3-280.6"/>
			</g>
		</g>
	</g>
</g>
<path id="XMLID_48_" class="st9" d="M423.5,343.2c-44.8,34.4-73.6,35.6-80.3,35.4c14.1-3.7,29.4-16.5,30.3-54.4l24.8-15.8l30.1-8.6
	C428.6,301.8,424.3,321,423.5,343.2z"/>
<path id="XMLID_3_" class="st7" d="M401.8,330.7c0,0-25.8,18.8-46.2,13.5c-20.3-5.3-44-36.2-42.7-60.1c1.1-21.2,5.5-21,5.5-21
	s-11.4-10.7-10.3-27.5c1.1-16.8,0.3-68.2,70-69.3s76.4,54.4,76.4,54.4S476.7,268.2,401.8,330.7z"/>
<path id="XMLID_216_" class="st10" d="M357,260.4c0,0.8,0,1.6,0,2.4c0,0.2,0,0.4,0,0.6c0,0.1,0,0.2,0,0.2c0,0,0,0.2,0,0.1
	c0-0.1,0,0,0,0.1c0,0.4-0.1,0.8-0.1,1.2c-0.1,1.5-0.4,3.1-0.7,4.6c-0.2,0.7-0.3,1.5-0.5,2.2c-0.1,0.4-0.2,0.8-0.3,1.1
	c-0.1,0.2-0.1,0.4-0.2,0.5c0,0.2,0,0,0,0c0,0,0,0.1,0,0.1c0,0.1-0.1,0.2-0.1,0.3c-0.5,1.5-1.1,2.9-1.8,4.3c-0.7,1.4-1.4,2.7-2.3,4.1
	c-0.1,0.2-0.2,0.3-0.3,0.5c-0.1,0.1,0.1-0.1,0,0c0,0-0.1,0.1-0.1,0.1c-0.1,0.1-0.1,0.2-0.2,0.3c-0.2,0.3-0.4,0.6-0.7,1
	c-0.4,0.6-0.9,1.2-1.4,1.8c-1,1.2-2,2.3-3.2,3.4c-0.1,0.1-0.3,0.3-0.4,0.4c-0.1,0.1-0.1,0.1-0.2,0.2c0,0-0.1,0.1-0.1,0.1
	c-0.1,0.1,0.1-0.1,0,0c-0.3,0.3-0.6,0.5-0.9,0.7c-0.3,0.2-0.6,0.5-0.9,0.7c-0.4,0.3-0.8,0.6-1.1,1.1c-0.6,1,0.1,1.9,0.7,2.7
	c0.6,0.7,1.2,1.3,1.8,1.9c1.3,1.1,2.7,1.9,4.3,2.5c0.4,0.2,0.9,0.3,1.3,0.4c0.4,0.1,1-0.3,1-0.7c0.1-0.5-0.2-0.9-0.7-1
	c-0.2-0.1-0.4-0.1-0.6-0.2c-0.2,0,0,0,0,0c-0.1,0-0.1,0-0.2-0.1c-0.1,0-0.2-0.1-0.3-0.1c-0.4-0.1-0.7-0.3-1.1-0.5
	c-0.4-0.2-0.7-0.4-1.1-0.6c-0.1-0.1-0.2-0.1-0.2-0.2c0,0-0.1,0-0.1-0.1c0,0-0.2-0.1-0.1,0c0.1,0.1-0.1,0-0.1,0c0,0-0.1,0-0.1-0.1
	c-0.1-0.1-0.2-0.1-0.3-0.2c-0.6-0.5-1.2-1-1.8-1.6c-0.1-0.1-0.1-0.1-0.2-0.2c-0.1-0.1,0.1,0.2,0,0c0,0-0.1-0.1-0.1-0.1
	c-0.1-0.2-0.3-0.3-0.4-0.5c-0.1-0.1-0.2-0.3-0.3-0.4c0,0-0.1-0.1-0.1-0.1c0,0,0,0,0,0c0-0.1,0-0.1,0,0c0,0,0-0.1,0-0.1
	c0-0.1,0-0.1,0,0c0,0.1,0,0.1,0,0c0,0.2,0,0.1,0,0.1c0-0.2-0.1,0.1,0,0c0-0.1-0.1,0.1,0,0c0,0,0.1-0.1,0.1-0.1c0.1-0.1,0,0,0,0
	c0,0,0.1-0.1,0.1-0.1c0.1-0.1,0.2-0.1,0.3-0.2c0.3-0.2,0.6-0.5,0.9-0.7c0.6-0.5,1.2-1.1,1.8-1.6c1.1-1,2.2-2.1,3.2-3.3
	c2-2.4,3.7-5,5.1-7.7c1.4-2.8,2.5-5.7,3.2-8.8c0.7-3,1.1-6.1,1.1-9.3c0-0.4,0-0.7,0-1.1c0-0.5-0.5-0.9-1-0.8
	C357.3,259.5,356.9,259.9,357,260.4L357,260.4z"/>
<path id="XMLID_218_" class="st11" d="M340,312.7c1,10.7,15.8,13,21.1,11.6c5.3-1.4,10.3-4.1,15.4-6.8l-24.3-3L340,312.7z"/>
<g id="XMLID_6_">
	<path id="XMLID_306_" class="st7" d="M339.5,654.2c-17.6-9.8-83.1-21.7-83.1-21.7s-49.4-14.8-56-19.1c-5.9-3.9,43,6,43,6
		s-54-18.9-55.1-23.7c-1.1-4.9,59.2,15.3,59.2,15.3s-63-22.2-59.8-26.3c3.2-4.1,78.2,21.9,61.2,16.3c-17-5.5-51.1-24-41.1-24
		c0,0,26.5,7,45.6,15.7c19.1,8.7,1.4-10.6-5.4-21.7c-6.8-11.2,7.8-0.2,18.1,10.4c10.3,10.6,19.6,25.8,25.4,30.5
		c5.9,4.7,64.5,20.6,64.5,20.6"/>
	<path id="XMLID_42_" class="st3" d="M513.6,584.3c0,0-9,61.5-34.5,91.7c-4,4.8-8.4,8.7-13.3,11.6c0,0-3.8-0.3-10.4-1
		c-34.1-3.7-143-17.6-184.4-50.1c-14.9-11.7-2-48.1,11.7-44.5c4.4,1.2,16.4,4.7,32.8,9.1c13.7,3.7,30.4,7.9,48.2,11.8
		c25.7,5.6,53.6,10.5,77.8,11.8c0.9,0,1.8,0.1,2.7,0.1c0,0,0.2-1,0.5-3c0.3-1.7,0.6-4.2,1.1-7.2c0-0.2,0-0.3,0.1-0.5
		c4.3-28.9,15.7-109.3,17.5-152.9l-9.3-61.2C454.1,400,559.6,378.9,513.6,584.3z"/>
	<path id="XMLID_20_" class="st4" d="M455.5,686.6c-34.1-3.7-143-17.6-184.4-50.1c-14.9-11.7-2-48.1,11.7-44.5
		c4.4,1.2,16.4,4.7,32.8,9.1C335.1,617.1,405,657.8,455.5,686.6z"/>
	<path id="XMLID_16_" class="st4" d="M445.8,614.6c0,0.2-0.1,0.4-0.1,0.6c-0.3,2.2-0.6,3.8-0.8,5.2c-0.1,0.5-0.1,1-0.2,1.4
		c4,0.7,7.8,1.7,11.4,2.8c17.4,5.4,29.3,14.5,29.3,14.5c0-13.6-27.9-21.4-39.5-25L445.8,614.6z"/>
	<path id="XMLID_28_" class="st4" d="M441.8,624.7L474,658c4.7-9.7-7.9-23.8-17.8-33.5c-4.9-4.8-9.1-8.4-10.2-9.9
		c0,0-0.1-0.1-0.2-0.1c0,0.2-0.1,0.4-0.1,0.6c-0.2,1.7-0.4,3.2-0.5,4.4c-0.1,0.8-0.2,1.6-0.2,2.2c0,0,0,0,0,0L441.8,624.7z"/>
</g>
<path id="XMLID_12_" class="st12" d="M300.1,596.8c0,0-9.8-0.9-13.4,15.7"/>
<g id="XMLID_8_">
	<path id="XMLID_11_" class="st7" d="M278.4,687.6c20.2,0.4,82.7,23.1,82.7,23.1s50.2,12.1,58,11.7C426.2,722,379,706,379,706
		s56.2,10.9,59.5,7.3c3.4-3.7-58.8-16.6-58.8-16.6s65.6,12.5,64.9,7.4c-0.7-5.1-78.6-20.5-61.1-16.8c17.5,3.8,56.3,5,47.6,0
		c0,0-26.4-7.3-47.3-9.5c-20.9-2.1,4.1-9.8,15.6-16.1c11.5-6.3-6.6-4.1-20.8-0.1c-14.3,4-29.9,12.5-37.3,13.5
		c-7.4,1.1-66.1-14.7-66.1-14.7"/>
	<g id="XMLID_9_">
		<path id="XMLID_19_" class="st3" d="M339.3,709.6c-56.4,8.7-152.5-78.6-173.1-87.7c-2.2-1-4-2.6-5-4.8c-5.6-11.9-6.4-27.7-5-43.5
			l58.2-5.1c-1.1,4.6,1.8,8.4,5.4,11.4c84.4,69.7,118,81.7,131.1,85.1C364.7,668.7,358,706.8,339.3,709.6z"/>
		<path id="XMLID_17_" class="st4" d="M214.5,568.3l0-0.3c-0.4,0-0.9,0-1.3,0c-1.4,0-2.9,0.3-4.4,0.4c-6.7,0.1-14.7,0.8-21.4,2.5
			c-0.1,0-0.2,0.1-0.3,0.1c-7,1.7-12.6,4.7-14.2,9.9l45.5-2.3L214.5,568.3z"/>
		<path id="XMLID_10_" class="st12" d="M336.1,661.6c0,0,11.3,17.9-12.2,48.2"/>
	</g>
	<line id="XMLID_14_" class="st12" x1="340.9" y1="667.7" x2="353.7" y2="671.6"/>
	<line id="XMLID_29_" class="st12" x1="342.4" y1="673.7" x2="355.2" y2="677"/>
	<line id="XMLID_34_" class="st12" x1="342.4" y1="679.2" x2="353.7" y2="682"/>
	<line id="XMLID_35_" class="st12" x1="342.4" y1="684.7" x2="353.7" y2="688.3"/>
	<line id="XMLID_36_" class="st12" x1="340.9" y1="689.2" x2="350.7" y2="693.1"/>
	<line id="XMLID_37_" class="st12" x1="336.8" y1="695.1" x2="348.8" y2="696.1"/>
	<line id="XMLID_38_" class="st12" x1="334.8" y1="700.7" x2="349.6" y2="699.6"/>
	<line id="XMLID_39_" class="st12" x1="332.8" y1="705.2" x2="345.8" y2="702"/>
</g>
<line id="XMLID_40_" class="st12" x1="284.2" y1="594.4" x2="292.1" y2="596.8"/>
<line id="XMLID_41_" class="st12" x1="279.8" y1="595.6" x2="288.1" y2="599.8"/>
<path id="XMLID_2_" class="st2" d="M397.2,154.8c0,0-39.1-4.3-67.4,13.6c-28.3,17.9-24.3,108.6-22.3,113.3
	c3.2,7.6,33.5-79.6,49.6-92.1c0,0,33.3,47.9,52.3,58.8c0,0-2.6,226.4-33.3,286.8c0,0,46.3-27.4,42.6-195.7c0,0-3,104.8,80,208.4
	c0,0-28-118.4-14.8-155.5c0,0,30.7,97.8,52.6,133c4.6-22.8-1.6-81.3-12.7-117.6c-11.6-37.8-31.9-56.3-36.9-81.6
	C464.4,211.2,474.3,161.5,397.2,154.8z"/>
<path id="XMLID_317_" class="st13" d="M430.8,722.4c0,0,29.4,46.6,50.3,66.8c2.9,2.8,4.4,6.8,4.2,10.9l-0.5,8.2
	c-0.5,8.3-10.5,12.2-16.5,6.3l-43.1-42.6c-8.6-8.5-10.4-21.6-4.5-32.1L430.8,722.4z"/>
<circle id="XMLID_1_" class="st0" cx="451.4" cy="782.9" r="4.7"/>
<circle id="XMLID_5_" class="st14" cx="338.8" cy="717.7" r="4.7"/>
<line id="XMLID_27_" class="st15" x1="581.4" y1="974.8" x2="163.8" y2="990.6"/>
<g id="XMLID_23_">
	
		<ellipse id="XMLID_105_" transform="matrix(0.9991 4.243036e-002 -4.243036e-002 0.9991 11.4027 -14.0077)" class="st0" cx="335.7" cy="261.6" rx="4.2" ry="5.9"/>
	
		<ellipse id="XMLID_104_" transform="matrix(0.9991 4.234448e-002 -4.234448e-002 0.9991 11.4744 -16.0245)" class="st0" cx="384" cy="262.8" rx="4.2" ry="5.9"/>
</g>
<path id="XMLID_22_" class="st16" d="M361.7,392.6c0,0,0.7,16.1,22.3,0"/>
<g id="XMLID_7_">
	<g id="XMLID_72_">
		<path class="st2" d="M376.1,246.1c0.6-0.4,1.2-0.8,1.8-1.1c0.3-0.2,0.6-0.3,0.9-0.5c0.1-0.1,0.3-0.1,0.4-0.2c0,0,0.2-0.1,0.2-0.1
			c-0.3,0.1-0.3,0.1-0.2,0.1c0.1,0,0.1,0,0.2-0.1c1.3-0.5,2.7-0.9,4.1-1.2c0.3-0.1,0.7-0.1,1.1-0.2c0.2,0,0.3-0.1,0.5-0.1
			c0.1,0,0.2,0,0.2,0c0.3,0-0.4,0.1,0,0c0.7-0.1,1.4-0.2,2.1-0.2c1.5-0.1,2.9-0.1,4.4-0.1c1.6,0,3.3,0.1,4.9,0.2
			c0.4,0,0.8,0.1,1.3,0.1c0.2,0,0.4,0,0.5,0.1c0.1,0,0.3,0,0.1,0c-0.3,0,0.2,0,0.2,0c0.7,0.1,1.5,0.2,2.2,0.4c3,0.6,5.9,1.5,8.7,2.6
			c0.1,0,0.2,0.1,0.2,0.1c-0.2-0.1-0.3-0.1,0,0c0.2,0.1,0.4,0.2,0.6,0.3c0.4,0.2,0.8,0.4,1.2,0.5c0.8,0.4,1.5,0.7,2.2,1.2
			c1.5,0.8,3,1.8,4.4,2.8c0.9,0.7,2.5,0.2,3-0.8c0.6-1.1,0.2-2.3-0.8-3c-5.2-3.7-11.2-6.3-17.4-7.7c-3.4-0.7-6.8-1.1-10.3-1.2
			c-3.2-0.1-6.3,0-9.5,0.6c-3.4,0.6-6.8,1.7-9.6,3.7c-0.9,0.7-1.5,2-0.8,3C373.7,246.2,375.1,246.8,376.1,246.1L376.1,246.1z"/>
	</g>
</g>
<g id="XMLID_24_">
	<g id="XMLID_60_">
		<path class="st2" d="M347.6,242.3c-5.2-3.6-11.7-4.4-17.9-4.3c-6.6,0.1-13.2,1.1-19.3,3.6c-3.4,1.4-6.6,3.1-9.6,5.2
			c-0.9,0.7-1.5,1.9-0.8,3c0.6,0.9,2,1.5,3,0.8c2.5-1.8,5.1-3.3,7.9-4.5c0.2-0.1,0.4-0.2,0.6-0.2c0.4-0.2-0.3,0.1,0.1,0
			c0.4-0.2,0.7-0.3,1.1-0.4c0.7-0.3,1.4-0.5,2.1-0.8c1.4-0.5,2.9-0.9,4.4-1.2c0.7-0.2,1.5-0.3,2.2-0.4c0.4-0.1,0.7-0.1,1.1-0.2
			c0.1,0,0.2,0,0.3,0c0.3,0-0.1,0-0.2,0c0.2-0.1,0.4-0.1,0.6-0.1c1.7-0.2,3.4-0.3,5.2-0.3c1.5,0,2.9,0,4.4,0c0.7,0,1.5,0.1,2.2,0.2
			c0.3,0,0.7,0.1,1,0.1c0.1,0,0.4,0.1,0.1,0c-0.3,0,0,0,0,0c0.2,0,0.4,0.1,0.6,0.1c1.6,0.3,3.2,0.6,4.7,1.2c0.2,0.1,0.4,0.1,0.5,0.2
			c0.1,0,0.4,0.2,0.1,0c-0.3-0.1,0.1,0,0.1,0c0.4,0.2,0.7,0.3,1.1,0.5c0.7,0.4,1.4,0.8,2.1,1.3c0.9,0.7,2.5,0.2,3-0.8
			C349,244.1,348.6,243,347.6,242.3L347.6,242.3z"/>
	</g>
</g>
</svg>
