<?xml version="1.0" encoding="utf-8"?>
<!-- Generator: Adobe Illustrator 19.0.0, SVG Export Plug-In . SVG Version: 6.00 Build 0)  -->
<svg version="1.1" id="Warstwa_1" xmlns="http://www.w3.org/2000/svg" xmlns:xlink="http://www.w3.org/1999/xlink" x="0px" y="0px"
	 viewBox="383.7 -33 740.8 100" style="enable-background:new 383.7 -33 740.8 100;" xml:space="preserve">
<style type="text/css">
	.st0{fill:#3A6D55;}
</style>
<g id="XMLID_1_">
	<path id="XMLID_2_" class="st0" d="M420.3,17v25.2h-8.2V65h-28.4V4.2c0-11.8,3.2-20.9,9.6-27.4s15.5-9.8,27.1-9.8
		c11.2,0,19.5,3,24.9,8.9s8.1,15,8.1,27.4V65h-28.5V5.1c0-3.7-0.4-6.3-1.3-7.8c-0.9-1.4-2.5-2.2-4.8-2.2c-4.4,0-6.7,3.3-6.7,9.9v12
		H420.3z"/>
	<path id="XMLID_5_" class="st0" d="M484.9-30.6h34.7c20.6,0,30.9,8.1,30.9,24.3c0,8-3.5,14.7-10.6,20c10.2,4.4,15.3,12.4,15.3,23.8
		c0,8.7-3,15.7-9,20.9c-2.9,2.5-6.1,4.2-9.5,5.2c-3.4,1-7.9,1.5-13.6,1.5h-5.4V40.4h4.8c2.8,0,4.9-0.4,6-1.1c1.2-0.7,1.8-2,1.8-3.8
		c0-3.1-2.4-4.6-7.1-4.6h-5.5V5.4c5.2,0,7.8-1.8,7.8-5.4c0-3.3-2.4-5-7.1-5h-5.3v70h-28.4v-95.6H484.9z"/>
	<path id="XMLID_7_" class="st0" d="M626.5-33c13.5,0,25.2,4.9,34.9,14.8s14.5,21.6,14.5,35.4c0,14-4.9,25.8-14.6,35.6
		c-9.8,9.8-21.6,14.6-35.6,14.6c-13.9,0-25.7-4.9-35.5-14.7c-9.8-9.8-14.8-21.7-14.8-35.5c0-14,4.9-25.9,14.8-35.6
		S612.2-33,626.5-33z M625.6-4.8c-5.8,0-10.8,2.1-14.9,6.4s-6.2,9.5-6.2,15.6s2.1,11.3,6.2,15.6c4.1,4.3,9.1,6.4,14.9,6.4
		c5.9,0,10.9-2.1,15-6.4c4.1-4.3,6.1-9.5,6.1-15.6s-2-11.3-6.1-15.6C636.5-2.7,631.5-4.8,625.6-4.8z"/>
	<path id="XMLID_10_" class="st0" d="M770.8-30.6v62c0,10.9-3.3,19.7-9.8,26.2s-15.2,9.8-26,9.8s-19-3.2-24.8-9.5
		c-5.7-6.4-8.6-15.5-8.6-27.4v-61.1H730v61c0,5.8,2.1,8.8,6.2,8.8c4,0,6-2.9,6-8.8v-61C742.2-30.6,770.8-30.6,770.8-30.6z"/>
	<path id="XMLID_12_" class="st0" d="M844.1-3.2V65h-28.4V-3.2h-21.8v-27.4h71.9v27.5h-21.7V-3.2z"/>
	<path id="XMLID_14_" class="st0" d="M938.9,65V-3.9c0-8.5,2.6-15.5,7.8-20.9s11.9-8.1,20.2-8.1c9.8,0,17.4,4.5,22.6,13.5
		c3.2-4.9,6.7-8.3,10.4-10.4c3.6-2.2,8.2-3.2,13.6-3.2c8.6,0,15.2,2.7,19.8,8.1s6.9,13.2,6.9,23.4V65h-28.4V2.8
		c0-3.1-0.2-5.1-0.7-6.1s-1.5-1.5-3-1.5c-2.8,0-4.2,2.4-4.2,7.1V65h-28.4V2.8c0-3-0.3-5.1-0.8-6.1s-1.5-1.5-3-1.5
		c-2.8,0-4.2,2.5-4.2,7.6V65H938.9z"/>
	<path id="XMLID_16_" class="st0" d="M1122.7,6.6v21.3h-18.6c-2.5,0-4.3,0.4-5.4,1.1c-1.1,0.7-1.6,2-1.6,3.8c0,2,0.5,3.3,1.6,4
		c1.1,0.6,3.3,0.9,6.6,0.9h19.1V65h-22.3c-10.5,0-18.5-2.5-24.1-7.5s-8.3-12.3-8.3-21.8V-1.8c0-9.2,2.6-16.3,7.9-21.3
		c5.3-5,12.6-7.6,22.2-7.6h24.7v27.5h-18.1c-4.9,0-7.4,1.6-7.4,4.8c0,1.9,0.6,3.2,1.8,3.9c1.2,0.7,3.2,1.1,6.2,1.1
		C1107,6.6,1122.7,6.6,1122.7,6.6z"/>
</g>
</svg>
