<?xml version="1.0" encoding="utf-8"?>
<!-- Generator: Adobe Illustrator 19.0.0, SVG Export Plug-In . SVG Version: 6.00 Build 0)  -->
<svg version="1.1" id="Warstwa_1" xmlns="http://www.w3.org/2000/svg" xmlns:xlink="http://www.w3.org/1999/xlink" x="0px" y="0px"
	 viewBox="0 0 518.4 85.1" style="enable-background:new 0 0 518.4 85.1;" xml:space="preserve">
<style type="text/css">
	.st0{fill:#3A6D55;}
</style>
<g id="XMLID_3_">
	<path id="XMLID_29_" class="st0" d="M63.3,64.5h-16v-23c0-1.8-0.2-3-0.6-3.7c-0.4-0.7-1-1-2-1c-1.8,0-2.7,1.6-2.7,4.8v23H26v-23
		c0-1.8-0.2-3-0.6-3.7c-0.4-0.7-1.1-1-2-1c-1.8,0-2.7,1.6-2.7,4.8v23h-16V38.2c0-4.8,1.6-8.9,4.8-12.2c3.2-3.4,7.1-5,11.7-5
		c4.7,0,9,2,12.8,6c4.2-4,8.4-6,12.6-6c5.3,0,9.6,1.9,12.9,5.8c2.5,3,3.8,7.4,3.8,13.2V64.5z"/>
	<path id="XMLID_31_" class="st0" d="M87,83.2V69.3c2.2,0.9,4.1,1.4,5.7,1.4c5.2,0,8.6-2.9,10.1-8.8c-2.8,1.7-5.5,2.5-8.2,2.5
		c-4,0-7.2-1.5-9.8-4.4c-2.6-3-3.9-6.7-3.9-11.3V21.8h16v23c0,2.5,1.1,3.8,3.2,3.8c2,0,3-1.4,3-4.2V21.8h16v38.1
		c0,7.1-2,12.9-6,17.2c-4.8,5.2-10.5,7.8-17.3,7.8C92.9,84.9,89.9,84.4,87,83.2z"/>
	<path id="XMLID_33_" class="st0" d="M168,22.4h16v23c0,1.8,0.2,3,0.6,3.7c0.4,0.7,1,1,2,1c1.8,0,2.7-1.6,2.7-4.8v-23h16v23
		c0,1.8,0.2,3,0.6,3.7c0.4,0.7,1.1,1,2,1c1.8,0,2.7-1.6,2.7-4.8v-23h16v26.3c0,4.8-1.6,8.9-4.8,12.2c-3.2,3.4-7.1,5-11.7,5
		c-4.7,0-9-2-12.8-6c-4.2,4-8.4,6-12.6,6c-5.3,0-9.6-1.9-12.9-5.8c-2.5-3.1-3.8-7.5-3.8-13.2V22.4z"/>
	<path id="XMLID_35_" class="st0" d="M286.7,45.7h-24.3c-0.4-1.2-0.6-2.4-0.6-3.4c0-1.4,0.3-2.8,0.8-4.2h8.1
		c-0.6-3.2-2.4-4.8-5.4-4.8c-2,0-3.6,0.9-4.9,2.5c-1.3,1.7-1.9,3.9-1.9,6.5c0,2.8,0.6,5,1.8,6.7c1.2,1.7,2.8,2.6,4.8,2.6
		c1.6,0,3.1-0.8,4.6-2.4l9.1,11c-4.3,3.3-9,5-14.2,5c-6.3,0-11.7-2.1-16-6.4c-4.3-4.3-6.5-9.5-6.5-15.8c0-6.3,2.2-11.5,6.5-15.9
		c4.4-4.3,9.7-6.5,16-6.5c6.2,0,11.4,2.1,15.6,6.3c4.2,4.2,6.3,9.4,6.3,15.6C286.9,43.4,286.8,44.4,286.7,45.7z"/>
	<path id="XMLID_37_" class="st0" d="M317.2,6v35c0,5.7,2,8.5,6.1,8.5c1.7,0,3.2-0.6,4.4-1.8c1.2-1.2,1.8-2.6,1.8-4.3
		c0-1.7-0.6-3.2-1.7-4.4c-1.1-1.2-2.5-1.8-4.2-1.8c-1.2,0-2.5,0.5-4,1.5V21.2c1.9-0.2,3.3-0.3,4.3-0.3c6,0,11.2,2.2,15.5,6.5
		s6.4,9.6,6.4,15.7c0,6.3-2.2,11.5-6.6,15.8c-4.4,4.3-9.7,6.4-16.1,6.4c-3.2,0-6.3-0.7-9.4-2.1c-3-1.4-5.5-3.3-7.5-5.7
		c-3.4-4.1-5.1-9.4-5.1-16V6H317.2z"/>
	<path id="XMLID_39_" class="st0" d="M388.4,22.4v16.9c-2.3,0-3.8,0.4-4.6,1.3c-0.8,0.8-1.4,2.5-1.6,5c-0.7,8.3-3.9,14.1-9.6,17.5
		c-3,1.8-7.3,2.7-12.8,2.7h-2.2v-17h0.7c2.6,0,4.4-0.5,5.5-1.6c1.1-1.1,1.7-2.9,1.9-5.6c0.2-4.4,0.6-7.4,1.2-9.2
		c0.6-1.8,1.8-3.5,3.6-5.3c3.1-3.1,7.5-4.6,13.1-4.6H388.4z"/>
	<path id="XMLID_41_" class="st0" d="M418.5,21.8v42.7h-16V21.8H418.5z M410.5,2.7c2.2,0,4,0.8,5.6,2.3c1.6,1.5,2.4,3.3,2.4,5.4
		c0,2.2-0.8,4.1-2.3,5.5c-1.5,1.4-3.4,2.1-5.8,2.1s-4.3-0.7-5.8-2.1c-1.5-1.4-2.2-3.3-2.2-5.5c0-2.1,0.8-3.9,2.4-5.4
		C406.4,3.5,408.3,2.7,410.5,2.7z"/>
	<path id="XMLID_44_" class="st0" d="M450.9,6v16.4h7.2v16.9h-7.2c0,3.4,0.5,5.7,1.6,7s3,1.9,5.9,1.9v16.8c-0.8,0-1.4,0-1.8,0
		c-3.6,0-7-0.8-10.3-2.5c-3.2-1.7-5.8-4-7.7-6.9c-2.5-3.7-3.7-8.6-3.7-14.7V6H450.9z"/>
	<path id="XMLID_46_" class="st0" d="M516.8,45.7h-24.3c-0.4-1.2-0.6-2.4-0.6-3.4c0-1.4,0.3-2.8,0.8-4.2h8.1
		c-0.6-3.2-2.4-4.8-5.4-4.8c-2,0-3.6,0.9-4.9,2.5s-1.9,3.9-1.9,6.5c0,2.8,0.6,5,1.8,6.7c1.2,1.7,2.8,2.6,4.8,2.6
		c1.6,0,3.1-0.8,4.6-2.4l9.1,11c-4.3,3.3-9,5-14.2,5c-6.3,0-11.7-2.1-16-6.4c-4.3-4.3-6.5-9.5-6.5-15.8c0-6.3,2.2-11.5,6.5-15.9
		c4.4-4.3,9.7-6.5,16-6.5c6.2,0,11.4,2.1,15.6,6.3c4.2,4.2,6.3,9.4,6.3,15.6C516.9,43.4,516.9,44.4,516.8,45.7z"/>
</g>
</svg>
