<?xml version="1.0" encoding="utf-8"?>
<!-- Generator: Adobe Illustrator 19.0.0, SVG Export Plug-In . SVG Version: 6.00 Build 0)  -->
<svg version="1.1" id="Warstwa_1" xmlns="http://www.w3.org/2000/svg" xmlns:xlink="http://www.w3.org/1999/xlink" x="0px" y="0px"
	 viewBox="0 0 35 35" style="enable-background:new 0 0 35 35;" xml:space="preserve">
<style type="text/css">
	.st0{fill:#549372;}
	.st1{fill:#FFFFFF;}
</style>
<g id="XMLID_95_">
	<circle id="XMLID_9_" class="st0" cx="17" cy="18.2" r="15.9"/>
	<path id="XMLID_13_" class="st1" d="M18.3,13.3v1.8h2.4c0.1,0,0.2,0.1,0.2,0.2l-0.2,2.5c0,0.1-0.1,0.2-0.2,0.2h-2.2v8.4
		c0,0.1-0.1,0.2-0.2,0.2H15c-0.1,0-0.2-0.1-0.2-0.2v-8.4h-1.5c-0.1,0-0.2-0.1-0.2-0.2v-2.5c0-0.1,0.1-0.2,0.2-0.2h1.5v-2.4
		c0-1.7,1.4-3.1,3.1-3.1h2.9c0.1,0,0.2,0.1,0.2,0.2v2.5c0,0.1-0.1,0.2-0.2,0.2h-1.7C18.7,12.6,18.3,12.9,18.3,13.3z"/>
</g>
</svg>
