<?xml version="1.0" encoding="utf-8"?>
<!-- Generator: Adobe Illustrator 19.0.0, SVG Export Plug-In . SVG Version: 6.00 Build 0)  -->
<svg version="1.1" id="Warstwa_1" xmlns="http://www.w3.org/2000/svg" xmlns:xlink="http://www.w3.org/1999/xlink" x="0px" y="0px"
	 viewBox="0 0 35 35" style="enable-background:new 0 0 35 35;" xml:space="preserve">
<style type="text/css">
	.st0{fill:#B6D154;}
	.st1{fill-rule:evenodd;clip-rule:evenodd;fill:#FFFFFF;}
</style>
<g id="XMLID_109_">
	<circle id="XMLID_10_" class="st0" cx="17.4" cy="18.2" r="15.9"/>
	<path id="XMLID_112_" class="st1" d="M17.4,9.2c-5.1,0-9.2,4.1-9.2,9.2c0,4,2.6,7.5,6.3,8.7c0.5,0.1,0.6-0.2,0.6-0.4
		c0-0.2,0-0.8,0-1.6c-2.5,0.6-3.1-1.2-3.1-1.2c-0.4-1.1-1-1.3-1-1.3c-0.8-0.6,0.1-0.6,0.1-0.6c0.9,0.1,1.4,0.9,1.4,0.9
		c0.8,1.4,2.1,1,2.7,0.8c0.1-0.6,0.3-1,0.6-1.2c-2-0.2-4.2-1-4.2-4.5c0-1,0.4-1.8,0.9-2.5c-0.1-0.2-0.4-1.2,0.1-2.4
		c0,0,0.8-0.2,2.5,0.9c0.7-0.2,1.5-0.3,2.3-0.3c0.8,0,1.6,0.1,2.3,0.3c1.7-1.2,2.5-0.9,2.5-0.9c0.5,1.3,0.2,2.2,0.1,2.4
		c0.6,0.6,0.9,1.5,0.9,2.5c0,3.5-2.1,4.3-4.2,4.5c0.3,0.3,0.6,0.8,0.6,1.7c0,1.2,0,2.2,0,2.5c0,0.2,0.2,0.5,0.6,0.4
		c3.6-1.2,6.3-4.6,6.3-8.7C26.5,13.3,22.4,9.2,17.4,9.2z"/>
</g>
</svg>
