<?xml version="1.0" encoding="utf-8"?>
<!-- Generator: Adobe Illustrator 19.0.0, SVG Export Plug-In . SVG Version: 6.00 Build 0)  -->
<svg version="1.1" id="Warstwa_1" xmlns="http://www.w3.org/2000/svg" xmlns:xlink="http://www.w3.org/1999/xlink" x="0px" y="0px"
	 viewBox="0 0 240 384" style="enable-background:new 0 0 240 384;" xml:space="preserve">
<style type="text/css">
	.st0{fill:#1B2E35;}
	.st1{fill:#263C42;}
	.st2{fill:#2C141B;}
	.st3{fill:#E8D9CA;}
	.st4{fill:#CEC2B7;}
	.st5{fill:#3C110D;}
	.st6{fill:#FFB319;}
	.st7{fill:#F5A58E;}
	.st8{fill:#006633;}
	.st9{fill:#E5907C;}
	.st10{fill:#DD5865;}
	.st11{fill:#BCB0A6;}
	.st12{fill:#0E1A1E;}
	.st13{fill:#333333;}
	.st14{fill:#DD9587;}
</style>
<path id="XMLID_27_" class="st0" d="M242.3,499.9H6.5c0.9-15.3,2.6-38.1,2.9-47.5c0.5-13.9,1.1-27.8,2.2-41.7c0-0.1,0-0.3,0-0.4
	c1.5-18.5,4-36.8,8.8-54.7c0.3-1,0.6-2,0.8-3c0.5-1.8,1-3.5,1.6-5.3c0.4-1.2,0.8-2.4,1.2-3.6c0.3-0.9,0.6-1.8,0.9-2.7
	c0.9-2.5,1.8-4.9,2.8-7.3c0.3-0.7,0.5-1.4,0.8-2c0.3-0.8,0.6-1.5,1-2.3c0.6-1.4,1.2-2.8,1.9-4.2c0.4-0.8,0.7-1.5,1.1-2.3
	c1-2,2-4,3-6c0.4-0.7,0.7-1.4,1.1-2l1.1-2c0.4-0.7,0.8-1.3,1.2-2c0.8-1.3,1.6-2.6,2.4-3.9c1.6-2.6,3.4-5.1,5.2-7.6
	c0.4-0.6,0.9-1.2,1.4-1.8c0.9-1.2,1.8-2.4,2.8-3.5l0.1-0.1c0.5-0.6,1.1-1.1,1.6-1.7c0.5-0.6,0.6-1.2,1.6-1.7
	c5.2-5.9,10.9-11.4,17.2-16.2l93.8,29.9c16.7,30.8,32.4,68.5,46.5,106.2c0.1,0.1,0.1,0.3,0.1,0.4
	C223.1,441.6,233.5,472.6,242.3,499.9z"/>
<path id="XMLID_30_" class="st1" d="M105.1,309c0,2.7-0.2,5.3-0.5,7.9c-0.3,2.6-0.7,5.2-1.1,7.8c-0.4,2.6-1.1,5.1-1.9,7.7
	c-0.4,1.3-0.7,2.5-1.1,3.8c-0.3,1.3-0.6,2.6-0.9,3.8c-0.2,1.3-0.5,2.6-0.6,3.9c-0.2,1.3-0.3,2.6-0.4,3.9l-0.4,3.9
	c-0.1,1.3-0.3,2.6-0.5,3.9c-0.4,2.6-0.8,5.2-1.2,7.8l-0.7,3.9c-0.3,1.3-0.5,2.6-0.8,3.9l-1.3-1.8c2.6,0.6,5.2,1.1,7.8,1.8
	c2.6,0.7,5.2,1.4,7.8,2.3l-0.1,0.3c-2.7,0-5.4-0.2-8.1-0.4c-2.7-0.2-5.3-0.5-8-0.9l-1.5-0.2l0.2-1.6c0.2-1.3,0.4-2.6,0.6-3.9
	l0.7-3.9c0.5-2.6,1.1-5.1,1.7-7.7c0.3-1.3,0.6-2.6,0.9-3.8l1-3.8c0.3-1.3,0.7-2.5,1-3.8c0.3-1.3,0.6-2.6,0.8-3.9
	c0.2-1.3,0.4-2.6,0.6-3.9c0.1-1.3,0.3-2.6,0.4-3.9c0.2-2.6,0.5-5.2,1-7.8c0.5-2.6,1.1-5.1,1.8-7.7c0.7-2.5,1.4-5.1,2.4-7.6
	L105.1,309z"/>
<path id="XMLID_44_" class="st2" d="M238.3,188.2c0,52-28.5,94.1-63.6,94.1c-12,0-23.3-4.9-32.9-13.5c-9.4-8.4-21.4-11-32.4-6.4
	c-5.5,2.3-11.2,3.5-17.2,3.5c-35.1,0-63.6-42.1-63.6-94.1c0-36.9,14.4-68.9,35.3-84.3c8.6-6.3,14.7-16.7,16.9-28.8
	C88.1,18.5,106.9,1,136.3,1c35.1,0,69.6,30.1,69.6,82.1c0,0.6,0,1.3,0,1.9c-0.2,11.8,3.5,23.2,10.1,31.6
	C229.6,133.9,238.3,159.5,238.3,188.2z"/>
<path id="XMLID_45_" class="st3" d="M175.1,209.6c-4.5,22-13.3,43.6-19.8,57.6c-4.1,9-7.3,14.8-7.8,15.8l-90.9-16.9l0.1-0.1
	c-25.1-75.4,31-129.5,31-129.5l8.3,4.7c-26.5,59.6,19.8,53.5,19.8,53.5l2.1,15.9l9.2-11.1c36.8,10.6,47.3-39.8,47.3-39.8
	C179.7,174.1,178.7,192,175.1,209.6z"/>
<path id="XMLID_46_" class="st4" d="M175.1,209.6c-4.5,22-13.3,43.6-19.8,57.6l-5.9-13.6l23.3-70.5L175.1,209.6z"/>
<path id="XMLID_47_" class="st5" d="M46.7,298.7c36.4-0.4,72.8,1.6,108.9,5.8c4.1,0.5,9.3,0.4,11.1-3.3c0.7-1.5,0.6-3.3,0.1-4.8
	c-2.2-7.1-10.5-10.2-17.8-11.9c-24-5.7-49-7-73.4-4c-6.3,0.8-12.7,1.9-18.2,5"/>
<path id="XMLID_49_" class="st6" d="M98,276.6c-0.6,0-1.3,0.1-1.9,0.2c-0.5,0.1-1,0.2-1.5,0.4c-0.6,0.2-1.2,0.5-1.7,0.8
	c-0.6,0.3-1.1,0.7-1.6,1.1c-0.9,0.7-1.7,1.6-2.3,2.5c-0.4,0.6-0.6,1.2-0.9,1.8c-0.2,0.5-0.4,1-0.5,1.6c-0.1,0.7-0.2,1.3-0.2,2
	c0,0.7,0,1.3,0.1,2c0.2,1.2,0.6,2.4,1.2,3.4c0.3,0.6,0.7,1.1,1.2,1.7c0.4,0.4,0.8,0.9,1.2,1.3c0.5,0.5,1,0.9,1.6,1.3
	c0.5,0.4,1,0.7,1.5,1c0.6,0.3,1.3,0.6,1.9,0.9c0.5,0.2,1.1,0.4,1.7,0.5c1.1,0.2,2.3,0.3,3.4,0.2c1.1-0.1,2.3-0.3,3.4-0.7
	c1.1-0.4,2.1-0.9,3.1-1.5c2-1.3,3.6-3.1,4.7-5.1c0.3-0.6,0.6-1.2,0.8-1.8c0.2-0.5,0.4-1,0.5-1.6c0.3-1.2,0.4-2.4,0.4-3.6
	c0-1.2-0.2-2.4-0.7-3.5c-0.2-0.6-0.5-1.1-0.8-1.7c-0.3-0.5-0.7-1-1-1.5c-0.7-0.9-1.5-1.6-2.4-2.2c-0.4-0.3-0.8-0.5-1.3-0.7
	c-0.5-0.2-1.1-0.5-1.7-0.6c-0.6-0.1-1.2-0.2-1.8-0.3c-0.2,0-0.4,0-0.6,0.1c-0.2,0.1-0.3,0.2-0.5,0.3c-0.3,0.3-0.4,0.7-0.4,1
	c0,0.4,0.1,0.8,0.4,1c0.1,0.1,0.2,0.2,0.3,0.2c0.2,0.1,0.5,0.2,0.7,0.2c0.2,0,0.3,0,0.5,0.1c-0.1,0-0.3,0-0.4-0.1
	c0.7,0.1,1.3,0.3,2,0.5c-0.1,0-0.2-0.1-0.3-0.1c0.7,0.3,1.4,0.7,2,1.2c-0.1-0.1-0.2-0.2-0.3-0.2c0.6,0.5,1.2,1.1,1.7,1.7
	c-0.1-0.1-0.2-0.2-0.2-0.3c0.5,0.7,0.9,1.4,1.3,2.1c0-0.1-0.1-0.2-0.1-0.3c0.3,0.8,0.5,1.6,0.7,2.4c0-0.1,0-0.3-0.1-0.4
	c0.1,1,0.1,1.9,0,2.9c0-0.1,0-0.3,0.1-0.4c-0.1,1.1-0.5,2.2-0.9,3.2c0-0.1,0.1-0.2,0.1-0.3c-0.4,1-1,2-1.7,2.9
	c0.1-0.1,0.2-0.2,0.2-0.3c-0.7,0.9-1.5,1.7-2.3,2.3c0.1-0.1,0.2-0.2,0.3-0.2c-0.9,0.7-1.9,1.3-2.9,1.7c0.1,0,0.2-0.1,0.3-0.1
	c-1,0.4-2,0.7-3.1,0.8c0.1,0,0.3,0,0.4-0.1c-0.9,0.1-1.9,0.1-2.8,0c0.1,0,0.3,0,0.4,0.1c-0.9-0.1-1.8-0.4-2.7-0.8
	c0.1,0,0.2,0.1,0.3,0.1c-1.1-0.5-2.2-1.1-3.2-1.9c0.1,0.1,0.2,0.2,0.3,0.2c-0.8-0.6-1.6-1.4-2.2-2.2c0.1,0.1,0.2,0.2,0.2,0.3
	c-0.5-0.6-0.9-1.3-1.2-2c0,0.1,0.1,0.2,0.1,0.3c-0.3-0.7-0.5-1.5-0.6-2.3c0,0.1,0,0.3,0.1,0.4c-0.1-0.8-0.1-1.7,0-2.5
	c0,0.1,0,0.3-0.1,0.4c0.1-0.8,0.3-1.6,0.6-2.3c0,0.1-0.1,0.2-0.1,0.3c0.3-0.7,0.7-1.3,1.1-1.9c-0.1,0.1-0.2,0.2-0.2,0.3
	c0.5-0.6,1-1.2,1.6-1.6c-0.1,0.1-0.2,0.2-0.3,0.2c0.7-0.5,1.4-0.9,2.1-1.2c-0.1,0-0.2,0.1-0.3,0.1c0.7-0.3,1.5-0.5,2.3-0.6
	c-0.1,0-0.3,0-0.4,0.1c0.4-0.1,0.8-0.1,1.2-0.1c0.4,0,0.8-0.2,1-0.4c0.3-0.3,0.4-0.7,0.4-1c0-0.4-0.1-0.8-0.4-1
	C98.8,276.8,98.4,276.6,98,276.6z"/>
<path id="XMLID_50_" class="st7" d="M121.8,197.2c0,0-62-13.8-25.8-55.9c0,0,6.6,2.2,13.7,0.4c8-2.1,16.7-9.4,17.2-30.8
	c0-1.6,0-3.2,0-4.9l14.1-4l17.1-4.9c0.1,1.2-2.4,12.1-2.8,24.6c-0.5,15.9,2.2,34.5,17.4,39.8C199.8,170.8,150.7,217.3,121.8,197.2z"
	/>
<path id="XMLID_53_" class="st3" d="M93.4,140l-21.6,27.6c-18.8,19.8-31.4,67-35,81.7l-33,2.9c1.6-17.8,8.2-35.8,8.9-37.6
	c0-0.1,0.1-0.2,0.1-0.3C47.2,100.3,93.4,140,93.4,140z"/>
<g id="XMLID_17_">
	<path id="XMLID_54_" d="M171.9,318.5l-11.4-146.9c-0.1-1.5-1.4-2.6-2.9-2.5l-104.7,8.1c-1.5,0.1-2.6,1.4-2.5,2.9L61.9,327
		c0.1,1.5,1.4,2.6,2.9,2.5l104.7-8.1C170.9,321.3,172.1,319.9,171.9,318.5z"/>
	<path id="XMLID_55_" class="st8" d="M125.6,249.3c0-6.3-5.1-11.3-11.3-11.3c-0.2,0-0.3,0-0.5,0l-2.3,6.4h2c1.2,0,1.9,0.9,1.4,2.1
		l-2.9,7.9l-2.4,0l3.1-8.4h-1.8l-3.1,8.4h-2.4l3.6-9.9h0l2.2-6c-4.8,1.3-8.3,5.7-8.3,10.9c0,5.4,3.7,9.8,8.7,11l2.1-5.8h0l3.7-10.2
		h4.4c1.2,0,1.9,0.9,1.4,2.1l-2.5,6.9c-0.2,0.5-0.8,1-1.4,1h-3.2l-2.3,6.4c0.1,0,0.2,0,0.3,0C120.5,260.7,125.6,255.6,125.6,249.3"
		/>
	<polyline id="XMLID_56_" class="st8" points="121.1,245.8 119.3,245.8 116.8,252.8 118.6,252.8 121.1,245.8 	"/>
</g>
<path id="XMLID_57_" class="st9" d="M155.2,121.5c-25.4,19.5-41.7,20.2-45.5,20.1c8-2.1,16.7-9.4,17.2-30.8l14-9l17.1-4.9
	C158.1,98.1,155.7,109,155.2,121.5z"/>
<path id="XMLID_59_" class="st7" d="M147.1,110.3c0,0-14.6,10.7-26.2,7.6S96,97.4,96.7,83.9c0.6-12,3.1-11.9,3.1-11.9
	s-6.5-6.1-5.9-15.6s0.2-38.6,39.7-39.3S177,47.9,177,47.9S189.6,74.8,147.1,110.3z"/>
<path id="XMLID_60_" class="st9" d="M121.7,70.4c0,0.4,0,0.9,0,1.3c0,0.1,0,0.2,0,0.3l0,0.1l0,0l0,0c0,0.2,0,0.4,0,0.7
	c-0.1,0.9-0.2,1.7-0.4,2.6c-0.1,0.4-0.2,0.8-0.3,1.3c-0.1,0.2-0.1,0.4-0.2,0.6c0,0.1-0.1,0.2-0.1,0.3l0,0l0,0.1l-0.1,0.2
	c-0.3,0.8-0.6,1.6-1,2.4c-0.4,0.8-0.8,1.6-1.3,2.3l-0.2,0.3l0,0l0,0.1l-0.1,0.1c-0.1,0.2-0.3,0.4-0.4,0.5c-0.3,0.3-0.5,0.7-0.8,1
	c-0.6,0.7-1.2,1.3-1.8,1.9l-0.2,0.2l-0.1,0.1l-0.1,0.1l0,0c-0.2,0.1-0.3,0.3-0.5,0.4c-0.2,0.1-0.3,0.3-0.5,0.4
	c-0.2,0.2-0.5,0.3-0.6,0.6c-0.3,0.6,0.1,1.1,0.4,1.5c0.3,0.4,0.7,0.7,1,1.1c0.7,0.6,1.5,1.1,2.4,1.4c0.2,0.1,0.5,0.2,0.7,0.2
	c0.3,0.1,0.5-0.1,0.6-0.4c0-0.3-0.1-0.5-0.4-0.6c-0.1,0-0.2-0.1-0.3-0.1l0,0l-0.1,0l-0.2-0.1c-0.2-0.1-0.4-0.2-0.6-0.3
	c-0.2-0.1-0.4-0.2-0.6-0.3l-0.1-0.1l-0.1,0l0,0l0,0l-0.1,0l-0.1-0.1c-0.4-0.3-0.7-0.6-1-0.9l-0.1-0.1l0,0l0-0.1l-0.2-0.3l-0.2-0.2
	l0-0.1l0,0l0,0l0-0.1l0,0l0,0c0,0.1,0,0.1,0,0c0-0.1,0,0.1,0,0l0,0l0.1-0.1l0,0l0.1,0l0.2-0.1c0.2-0.1,0.3-0.3,0.5-0.4
	c0.4-0.3,0.7-0.6,1-0.9c0.6-0.6,1.2-1.2,1.8-1.9c1.1-1.3,2.1-2.8,2.9-4.4c0.8-1.6,1.4-3.2,1.8-5c0.4-1.7,0.6-3.5,0.6-5.2
	c0-0.2,0-0.4,0-0.6c0-0.3-0.3-0.5-0.5-0.5C121.9,69.9,121.7,70.1,121.7,70.4z"/>
<path id="XMLID_61_" class="st9" d="M121.7,70.4l-0.5,0c0,0.3,0,0.5,0,0.8c0,0.2,0,0.3,0,0.5l0,0l0,0c0,0.1,0,0.2,0,0.3l0,0.1l0,0
	l0,0l0,0c0,0.2,0,0.4,0,0.6c-0.1,0.9-0.2,1.7-0.4,2.5c-0.1,0.4-0.2,0.8-0.3,1.2l0,0c-0.1,0.2-0.1,0.4-0.2,0.6l0,0
	c0,0.1-0.1,0.2-0.1,0.3l1,0.3l0,0l-1-0.3l0,0.1l-0.1,0.2l0,0c-0.3,0.8-0.6,1.6-1,2.4c-0.4,0.8-0.8,1.5-1.3,2.2l0,0l-0.2,0.3l0.9,0.6
	l0,0l-0.9-0.6l0,0.1l0,0l-0.1,0.1l0,0c-0.1,0.2-0.2,0.4-0.4,0.5l0,0c-0.2,0.3-0.5,0.7-0.8,1c-0.5,0.7-1.1,1.3-1.8,1.9l0,0l-0.2,0.2
	l-0.1,0.1l-0.1,0.1l0,0l0,0c-0.2,0.1-0.3,0.3-0.5,0.4c-0.2,0.1-0.3,0.3-0.5,0.4c-0.2,0.2-0.5,0.4-0.7,0.7c-0.1,0.2-0.2,0.5-0.2,0.7
	c0,0.3,0.1,0.6,0.2,0.8c0.1,0.2,0.3,0.4,0.4,0.6c0.3,0.4,0.7,0.8,1.1,1.1c0.8,0.6,1.6,1.2,2.6,1.5c0.3,0.1,0.5,0.2,0.8,0.3l0.2,0
	c0.3,0,0.5-0.1,0.7-0.2c0.2-0.1,0.3-0.3,0.3-0.6l0,0l0-0.2c0-0.2-0.1-0.5-0.2-0.6c-0.1-0.2-0.3-0.3-0.6-0.4l0,0l0,0
	c-0.1,0-0.2-0.1-0.3-0.1l-0.3,1l0,0l0.3-1l-0.1,0l-0.2-0.1l-0.2,0.5l0.2-0.5c-0.2-0.1-0.4-0.2-0.6-0.2l0,0c-0.2-0.1-0.4-0.2-0.6-0.3
	l-0.3,0.4l0.3-0.4l-0.1-0.1l-0.1,0l0,0l0,0l0,0l-0.1,0l-0.1-0.1l-0.3,0.4l0.3-0.4c-0.3-0.3-0.7-0.5-0.9-0.8l-0.4,0.4l0.4-0.4
	l-0.1-0.1l-0.4,0.4l0.4-0.3l0,0l0,0l-0.1-0.1l-0.2-0.3l-0.2-0.2l0-0.1l0,0l-0.9,0.5l0,0l1-0.4l0-0.1l0-0.1l-0.1-0.1l-0.3,0.4
	l0.4,0.3l0,0l-0.4-0.3l-0.5,0l0,0l0.2,0l-0.2,0l0,0l0.2,0l-0.2,0l0.5,0l-0.5-0.1l0,0l0.5,0l-0.5-0.1l0.5,0.1l-0.5-0.1l0,0.1l0.5,0.1
	l-0.5-0.1l0.5,0.1l-0.5-0.2l0,0.1l0.5,0.1l-0.5-0.2l0.5,0.2l-0.4-0.4l-0.1,0.1l0.5,0.2l-0.4-0.4l0.4,0.4v-0.5
	c-0.2,0-0.3,0.1-0.4,0.2l0.4,0.4v-0.5v0.5l0.4-0.4c-0.1-0.1-0.2-0.2-0.4-0.2v0.5l0.4-0.4l-0.4,0.4l0.5-0.1c0,0,0-0.1-0.1-0.2
	l-0.4,0.4l0.5-0.1l-0.5,0.1l0.5,0c0,0,0,0,0-0.1l-0.5,0.1l0.5,0l-0.5,0h0.5l0,0l-0.5,0h0.5H114l0.3,0.1l0-0.1H114l0.3,0.1l0,0
	c0,0,0,0,0-0.1l0-0.1l-0.1-0.2c-0.1-0.1-0.2-0.2-0.4-0.2c-0.2,0-0.3,0.1-0.3,0.1l-0.1,0.1l0,0.1l0,0.1c0,0,0,0,0,0.1l0,0.2l0.1,0.2
	c0.1,0.1,0.2,0.2,0.4,0.2c0.1,0,0.2,0,0.3-0.1l0.1-0.1l0.1-0.1l2.1-4.6l-3,4.1l0.8,0.7l0.1-0.1l-0.7-0.8l0,0l0.3,0.4l0.3,0.4l0.1,0
	l0.1-0.1l0,0c0.2-0.1,0.4-0.3,0.5-0.4c0.4-0.3,0.7-0.6,1.1-0.9c0.6-0.6,1.3-1.2,1.8-1.9c1.2-1.4,2.1-2.9,3-4.5
	c0.8-1.6,1.4-3.3,1.9-5.1c0.4-1.7,0.6-3.4,0.6-5.2l0-0.2c0-0.2,0-0.4,0-0.6c0-0.3-0.1-0.5-0.3-0.7c-0.2-0.2-0.4-0.3-0.7-0.3l-0.1,0
	l0,0c-0.5,0.1-0.9,0.5-0.9,1l0,0l0,0l0,0L121.7,70.4l0.5,0l0,0l0,0l0,0l0-0.1l0,0.1l0,0l0-0.1l0,0.1v-0.1l0,0.1l0,0v-0.1l0,0.1l0,0
	l0.1,0l-0.1,0l0,0l0.1,0l-0.1,0c0,0.2,0,0.4,0,0.6l0,0.2c0,1.7-0.2,3.3-0.6,4.9c-0.4,1.7-1,3.3-1.8,4.8c-0.8,1.5-1.7,3-2.8,4.3
	c-0.5,0.6-1.1,1.3-1.7,1.8c-0.3,0.3-0.7,0.6-1,0.9c-0.2,0.1-0.3,0.3-0.5,0.4l0,0l-0.1,0.1l0,0l-0.1,0.1l0.6,0.8l0,0l-0.3-0.4
	l-0.4-0.3l-0.1,0.1l0.4,0.3l0.4,0.3l0,0l-0.4-0.3l-0.5-0.2l0.4,0.2l-0.4-0.2l0,0l0.4,0.2l-0.4-0.2l0.4,0.3l-0.4-0.3l-0.1,0.1
	l0.4,0.3l-0.4-0.3l0.4,0.4l-0.3-0.4l-0.1,0.1l0.4,0.4l-0.3-0.4l0.3,0.4v-0.5c-0.1,0-0.2,0-0.3,0.1l0.3,0.4v-0.5v0.5l0.4-0.4
	c-0.1-0.1-0.2-0.2-0.4-0.2v0.5l0.4-0.4l-0.4,0.3l0.5-0.1c0,0,0-0.1-0.1-0.3l-0.4,0.3l0.5-0.1l-0.5,0.1h0.5l0-0.1l-0.5,0.1h0.5h-0.4
	l0.4,0.1l0-0.1h-0.4l0.4,0.1l-0.2,0l0.2,0l0,0l-0.2,0l0.2,0l-0.4-0.1l0.3,0.1l0,0l-0.4-0.1l0.3,0.1l-0.5-0.2l0.4,0.2l0-0.1l-0.5-0.2
	l0.4,0.2l-0.5-0.2l0.4,0.3l0.1-0.1l-0.5-0.2l0.4,0.3l-0.4-0.3l0.3,0.4l0.1-0.1l-0.4-0.3l0.3,0.4l-0.3-0.4v0.5c0.1,0,0.2-0.1,0.3-0.1
	l-0.3-0.4v0.5v-0.5l-0.4,0.3c0.1,0.1,0.2,0.2,0.4,0.2v-0.5l-0.4,0.3l0.4-0.3l-0.5,0.1c0,0,0,0.1,0.1,0.2l0.4-0.3l-0.5,0.1l0.5-0.1
	l-0.5,0l0,0.1l0.5-0.1l-0.5,0h0.4l-0.4-0.1l0,0.1h0.4l-0.4-0.1l0,0l0,0l0,0.1l0,0l0,0.1l0,0.1l0.1,0.1c0.1,0.1,0.2,0.2,0.4,0.2
	c0.2,0,0.3-0.1,0.4-0.2c0.1-0.1,0.1-0.2,0.1-0.2l0-0.1l0-0.1l0-0.1l0.1-1.6l-1.3,1.6l0.4,0.3l0.3-0.4l-0.5,0.2l0,0.1l0.5-0.2
	l0.5-0.2l0,0l-0.5,0.2l-0.4,0.3l0,0l0,0l0.1,0.1l0,0l0.2,0.3l0,0l0.2,0.3l0,0l0.1,0.1l0.4-0.3l-0.4,0.3l0,0l0,0l0.1,0.1l0,0l0,0
	c0.3,0.4,0.7,0.7,1.1,1l0,0l0.2,0.1l0,0l0.1,0l0,0l0,0l0,0l0,0l0.1,0l0,0l0.1,0.1l0,0l0,0c0.2,0.1,0.4,0.2,0.6,0.3l0,0
	c0.2,0.1,0.4,0.2,0.6,0.3l0,0l0.2,0.1l0,0l0.1,0l0.3-1l0,0l-0.2,0.5l-0.2,0.5c0.1,0,0.2,0.1,0.3,0.1l0,0l0,0l0,0l0,0l0,0l0,0l0,0
	l0,0l0,0l0,0l0,0l0,0l0,0l0,0l0,0l0,0l0,0l0.1,0l-0.1-0.1l0,0l0.1,0l-0.1-0.1l0,0l0,0l0,0.1v-0.1l0,0l0,0.1v-0.1v0.1l0-0.1l0,0v0.1
	l0-0.1c-0.2-0.1-0.5-0.1-0.7-0.2c-0.8-0.3-1.6-0.8-2.3-1.3c-0.4-0.3-0.7-0.6-1-1c-0.1-0.1-0.2-0.3-0.3-0.4c-0.1-0.1-0.1-0.3-0.1-0.3
	l0.1-0.2c0.1-0.1,0.2-0.3,0.5-0.5c0.2-0.1,0.3-0.3,0.5-0.4c0.2-0.1,0.3-0.3,0.5-0.4l0,0l0,0l0.1-0.1l0.1-0.1l0,0l0.2-0.2l0,0l0,0
	c0.7-0.6,1.3-1.3,1.8-2c0.3-0.3,0.6-0.7,0.8-1.1l0,0c0.1-0.2,0.3-0.4,0.4-0.6l0.1-0.1l0,0l0-0.1l-0.9-0.6l0,0l0.4,0.3l0.4,0.3
	l0.2-0.3l0,0l0,0c0.5-0.8,0.9-1.5,1.3-2.4c0.4-0.8,0.7-1.6,1-2.5l0.1-0.2l0,0l0-0.1l-1-0.3l0,0l1,0.3c0-0.1,0.1-0.2,0.1-0.3l0,0
	c0.1-0.2,0.1-0.4,0.2-0.7l0,0c0.1-0.4,0.2-0.9,0.3-1.3c0.2-0.9,0.3-1.8,0.4-2.7c0-0.2,0-0.5,0.1-0.7l0,0l0,0l0,0l0-0.1
	c0-0.1,0-0.2,0-0.3l0,0c0-0.2,0-0.4,0-0.5c0-0.3,0-0.6,0-0.8l0,0L121.7,70.4z"/>
<path id="XMLID_62_" class="st10" d="M112,100.1c0.6,6.1,8.9,7.4,11.9,6.6c3-0.8,5.9-2.3,8.7-3.9l-13.8-1.7L112,100.1z"/>
<path id="XMLID_63_" class="st7" d="M107.6,297.9c-10-5.6-47.1-12.3-47.1-12.3s-28-8.4-31.8-10.8c-3.4-2.2,24.4,3.4,24.4,3.4
	s-30.6-10.7-31.2-13.4c-0.6-2.8,33.5,8.7,33.5,8.7s-35.7-12.6-33.9-14.9c1.8-2.3,44.3,12.4,34.7,9.3c-9.6-3.1-29-13.6-23.3-13.6
	c0,0,15,4,25.9,8.9c10.8,4.9,0.8-6-3.1-12.3c-3.8-6.3,4.4-0.1,10.2,5.9c5.8,6,11.1,14.6,14.4,17.3c3.3,2.7,36.6,11.7,36.6,11.7"/>
<path id="XMLID_25_" class="st3" d="M206.3,258.2c0,0-5.1,34.9-19.5,52c-2.3,2.7-4.8,5-7.5,6.6c0,0-0.4,0-1.1-0.1
	c-1-0.1-2.6-0.2-4.8-0.5c-19.3-2.1-81.1-10-104.5-28.4c-2.3-1.8-3.5-4.8-3.7-8c-0.3-4.2,0.9-8.8,2.8-12.2c2-3.5,4.7-5.7,7.5-5
	c2.5,0.7,9.3,2.7,18.6,5.2c7.8,2.1,17.2,4.5,27.3,6.7c14.6,3.2,30.4,5.9,44.1,6.7c0.5,0,1,0.1,1.5,0.1c0,0,0.1-0.6,0.3-1.7
	c0.1-1,0.4-2.4,0.6-4.1l0-0.3c2.4-16.4,8.9-61.9,9.9-86.7l-5.3-34.7C172.6,153.8,232.4,141.8,206.3,258.2z"/>
<path id="XMLID_21_" class="st4" d="M178.2,316.7c-1-0.1-2.6-0.2-4.8-0.5c-19.3-2.1-81.1-10-104.5-28.4c-1.5-1.2-2.8-4.3-3.7-8
	c-0.3-4.2,0.9-8.8,2.8-12.2C75.3,282.2,133.5,298.1,178.2,316.7z"/>
<path id="XMLID_66_" class="st4" d="M167.9,275.4c0,0.1,0,0.2,0,0.3c-0.2,1.2-0.3,2.2-0.4,3c0,0.3-0.1,0.6-0.1,0.8
	c2.3,0.4,4.4,0.9,6.5,1.6c9.9,3.1,16.6,8.2,16.6,8.2c0-7.7-15.8-12.1-22.4-14.2L167.9,275.4z"/>
<path id="XMLID_67_" class="st4" d="M165.6,281.1l18.3,18.9c2.7-5.5-4.5-13.5-10.1-19c-2.8-2.7-5.2-4.8-5.8-5.6l-0.1-0.1
	c0,0.1,0,0.2-0.1,0.3c-0.1,1-0.1,1.8-0.2,2.5c-0.1,0.5-0.1,0.9-0.1,1.3v0L165.6,281.1z"/>
<path id="XMLID_68_" class="st11" d="M84.9,265.8c0,0-0.1,0-0.3,0c-0.7,0-2.8,0.2-4.9,2.4c-2.2,2.2-4.5,6.4-5.7,14l1.4,0.4
	c1.2-7.3,3.4-11,5.2-12.9c1.9-1.9,3.6-2,4.1-2l0.1,0l0,0l0-0.1l0,0.1l0,0l0-0.1l0,0.1L84.9,265.8L84.9,265.8z"/>
<path id="XMLID_69_" class="st7" d="M73,316.8c11.4,0.2,46.9,13.1,46.9,13.1s28.4,6.9,32.9,6.6c4-0.2-22.8-9.3-22.8-9.3
	s31.8,6.2,33.7,4.1c1.9-2.1-33.4-9.4-33.4-9.4s37.2,7.1,36.8,4.2c-0.4-2.9-44.5-11.6-34.6-9.5c9.9,2.1,31.9,2.8,27,0
	c0,0-15-4.1-26.8-5.4c-11.8-1.2,2.3-5.6,8.9-9.1c6.5-3.5-3.7-2.3-11.8-0.1c-8.1,2.3-17,7.1-21.2,7.7c-4.2,0.6-37.5-8.3-37.5-8.3"/>
<path id="XMLID_70_" class="st3" d="M107.5,329.3c-32,4.9-86.5-44.5-98.1-49.7c-1.2-0.5-2.2-1.5-2.8-2.7c-3.2-6.8-3.6-15.7-2.8-24.7
	l33-2.9c-0.6,2.6,1,4.8,3.1,6.5c47.8,39.5,66.9,46.3,74.3,48.2C121.9,306.1,118.1,327.7,107.5,329.3z"/>
<path id="XMLID_71_" class="st4" d="M36.8,249.1l0-0.2c-0.2,0-0.5,0-0.8,0c-0.8,0-1.6,0.2-2.5,0.3c-3.8,0.1-8.3,0.5-12.1,1.4
	l-0.1,0.1c-3.9,1-7.1,2.7-8.1,5.6l25.8-1.3L36.8,249.1z"/>
<path id="XMLID_72_" class="st11" d="M105.2,302.4L105.2,302.4c0.1,0.2,1.5,2.6,1.5,6.7c0,4.6-1.6,11.4-8.3,20.1l0.8,0.6
	c6.8-8.8,8.5-15.9,8.5-20.7c0-4.6-1.6-7.2-1.6-7.2L105.2,302.4L105.2,302.4z"/>
<polyline id="XMLID_73_" class="st11" points="108.2,306 115.5,308.2 115.8,307.2 108.5,305 "/>
<polyline id="XMLID_74_" class="st11" points="109.1,309.4 116.4,311.3 116.6,310.3 109.4,308.4 "/>
<polyline id="XMLID_75_" class="st11" points="109.1,312.5 115.5,314.1 115.8,313.1 109.4,311.5 "/>
<polyline id="XMLID_76_" class="st11" points="109.1,315.7 115.5,317.7 115.8,316.7 109.4,314.7 "/>
<polyline id="XMLID_77_" class="st11" points="108.2,318.2 113.8,320.4 114.2,319.4 108.6,317.2 "/>
<polyline id="XMLID_78_" class="st11" points="106,321.5 112.8,322.1 112.9,321.1 106.1,320.5 "/>
<polyline id="XMLID_79_" class="st11" points="105,324.7 113.4,324.1 113.3,323.1 104.9,323.7 "/>
<polyline id="XMLID_80_" class="st11" points="103.9,327.3 111.3,325.5 111.1,324.5 103.7,326.2 "/>
<polyline id="XMLID_81_" class="st11" points="76.1,264.5 80.6,265.8 80.9,264.8 76.4,263.5 "/>
<polyline id="XMLID_82_" class="st11" points="72.7,265.7 77.4,268.1 77.8,267.2 73.1,264.8 "/>
<path id="XMLID_26_" class="st2" d="M193.6,145.2c-7.5,21,8.4,88.2,8.4,88.2c-39.6-49.4-44.7-99.3-45.3-113.9c0-1.4,0-2.8-0.1-4.2
	c0,0,0,1.5,0.1,4.2c1.3,91.6-24.2,106.7-24.2,106.7c17.4-34.2,18.9-162.6,18.9-162.6c-8.5-4.9-22-22.7-27.3-30.1
	c-1.5-2-2.3-3.3-2.3-3.3c-4.5,3.5-11,17.5-16.6,30.1C100.7,67,96.5,73.6,93.1,79c-0.1-0.9-0.1-1.9-0.2-3.1
	c-0.7-14.7,0.4-49.5,13.3-57.7c16-10.2,38.2-7.7,38.2-7.7c43.7,3.8,38.1,32,50.8,97.1c2.8,14.3,14.3,24.8,20.9,46.3
	c6.3,20.6,9.9,53.8,7.2,66.7C211,200.6,193.6,145.2,193.6,145.2z"/>
<path id="XMLID_34_" class="st2" d="M93.1,79c3.3-5.4,7.5-12,11.9-18.7c-5.7,12.8-10.5,24.3-11.5,22.1C93.5,82.1,93.3,80.9,93.1,79z
	"/>
<path id="XMLID_35_" class="st2" d="M136.2,24l-1.2-0.6C135.5,23.4,135.9,23.6,136.2,24z"/>
<path id="XMLID_36_" class="st2" d="M156.7,119.4c-0.1-2.8-0.1-4.2-0.1-4.2C156.7,116.6,156.7,118,156.7,119.4z"/>
<path id="XMLID_85_" class="st12" d="M159.4,336.5c0,0,16.7,26.4,28.5,37.9c1.7,1.6,2.5,3.9,2.4,6.2l-0.3,4.7
	c-0.3,4.7-6,6.9-9.3,3.6l-24.4-24.2c-4.8-4.8-5.9-12.3-2.5-18.2L159.4,336.5z"/>
<circle id="XMLID_86_" class="st0" cx="171" cy="350" r="2.7"/>
<path id="XMLID_87_" class="st1" d="M109.9,333.9h-1.6c0,0.6-0.5,1.1-1.1,1.1c-0.6,0-1.1-0.5-1.1-1.1c0-0.6,0.5-1.1,1.1-1.1
	c0.6,0,1.1,0.5,1.1,1.1H109.9h1.6c0-2.3-1.9-4.2-4.2-4.2c-2.3,0-4.2,1.9-4.2,4.2c0,2.3,1.9,4.2,4.2,4.2c2.3,0,4.2-1.9,4.2-4.2H109.9
	z"/>
<ellipse id="XMLID_88_" transform="matrix(0.9991 4.242934e-002 -4.242934e-002 0.9991 3.0843 -4.5542)" class="st13" cx="108.8" cy="70.4" rx="3.6" ry="5.1"/>
<ellipse id="XMLID_89_" transform="matrix(0.9991 4.234526e-002 -4.234526e-002 0.9991 3.2094 -5.8794)" class="st13" cx="140.4" cy="72.8" rx="3.6" ry="5.1"/>
<path id="XMLID_90_" class="st9" d="M119.2,149.6c0,0.1,0,1.2,0.7,2.4c0.3,0.6,0.8,1.3,1.5,1.8c0.7,0.5,1.7,0.8,2.8,0.8
	c2.1,0,4.8-1,8.5-3.6c0.5-0.3,0.6-1,0.2-1.5l0,0c-0.3-0.5-1-0.5-1.4-0.2c-3.5,2.5-5.9,3.2-7.2,3.2c-0.7,0-1.2-0.2-1.6-0.4
	c-0.5-0.4-0.9-1-1.1-1.6c-0.1-0.3-0.2-1-0.2-1l0,0l0,0L119.2,149.6L119.2,149.6z"/>
<path id="XMLID_91_" class="st2" d="M133.1,63.2c0.3-0.2,0.7-0.4,1-0.6c0.1-0.1,0.3-0.2,0.5-0.2l0.3-0.1c-0.1,0-0.4,0.1-0.1,0
	c0.7-0.3,1.5-0.5,2.3-0.7c0.2,0,0.4-0.1,0.6-0.1c0.1,0,0.2,0,0.3-0.1c0.3,0-0.2,0-0.2,0c0.4-0.1,0.9-0.1,1.3-0.1
	c0.8-0.1,1.6-0.1,2.4-0.1c0.9,0,1.8,0.1,2.7,0.1c0.2,0,0.5,0,0.7,0.1c0.1,0,0.2,0,0.3,0c0.3,0-0.4-0.1-0.1,0
	c0.4,0.1,0.8,0.1,1.2,0.2c0.9,0.2,1.7,0.4,2.5,0.6c0.8,0.2,1.7,0.5,2.4,0.8c0,0-0.4-0.2-0.1-0.1c0.1,0.1,0.3,0.1,0.4,0.2
	c0.2,0.1,0.4,0.2,0.7,0.3c0.4,0.2,0.8,0.4,1.2,0.6c0.9,0.5,1.7,1,2.5,1.6c1,0.7,2.6,0.2,3.1-0.8c0.6-1.2,0.2-2.4-0.8-3.1
	c-6.2-4.4-14.3-6-21.8-4.8c-2,0.3-4,1-5.7,2.2c-1,0.7-1.5,2-0.8,3.1C130.5,63.3,132,63.9,133.1,63.2z"/>
<polyline id="XMLID_14_" class="st11" points="69.6,268.9 74.3,271.2 74.8,270.3 70.1,267.9 "/>
<polyline id="XMLID_15_" class="st11" points="69.2,272.2 73.9,274.6 74.4,273.6 69.7,271.3 "/>
<polyline id="XMLID_16_" class="st11" points="67,276.6 71.7,278.9 72.2,278 67.5,275.6 "/>
<path id="XMLID_32_" class="st14" d="M121.7,30.2c0,0,0.9,1.2,2.3,3.3c-5.7,7.1-12.6,17.1-19,26.8C110.7,47.7,117.2,33.7,121.7,30.2
	z"/>
<path id="XMLID_92_" class="st2" d="M116.9,59.2c-3.1-2.1-6.9-2.6-10.6-2.6c-3.8,0-7.7,0.6-11.2,2.1c-2,0.8-4,1.8-5.8,3.1
	c-1,0.7-1.5,2-0.8,3.1c0.6,1,2.1,1.6,3.1,0.8c1.4-1,2.8-1.8,4.4-2.5c0.1,0,0.2-0.1,0.3-0.1c0,0,0.3-0.1,0.1,0
	c-0.3,0.1,0.3-0.1,0.4-0.2c0.4-0.2,0.8-0.3,1.3-0.5c0.8-0.3,1.6-0.5,2.4-0.7c0.4-0.1,0.8-0.2,1.2-0.2c0.2,0,0.4-0.1,0.6-0.1
	c0.1,0,0.5-0.1,0.1,0c-0.3,0.1,0.1,0,0.2,0c0.9-0.1,1.9-0.2,2.8-0.2c0.8,0,1.7,0,2.5,0c0.4,0,0.7,0,1.1,0.1c0.2,0,0.4,0,0.6,0.1
	c0.1,0,0.4,0,0,0c-0.4-0.1,0.1,0,0.2,0c0.9,0.1,1.7,0.3,2.6,0.6c0.1,0,0.2,0.1,0.3,0.1c0.1,0,0.4,0.1,0.1,0c-0.3-0.1,0,0,0.1,0.1
	c0.1,0,0.2,0.1,0.3,0.1c0.4,0.2,0.8,0.5,1.2,0.7c1,0.7,2.6,0.2,3.1-0.8C118.3,61.2,118,60,116.9,59.2z"/>
</svg>
